<?xml version="1.0" encoding="UTF-8"?><svg id="Layer_1" xmlns="http://www.w3.org/2000/svg" viewBox="0 0 512 512"><defs><style>.cls-1{fill:#46b1b0;stroke-width:0px;}</style></defs><path class="cls-1" d="M256.65,0s17.23,45.56-11.23,92.62c-47.49,78.52-93.19,87.03-124.21,172.21-33.09,90.84,6.24,157.74,6.24,157.74,0,0-.75-41.42,15.29-91.36,8.84-27.53,38.57-64.58,38.57-64.58l38.57,59.2s-33.97,37.2-46.64,77.14c-8.34,26.3-14.59,56.23,12.56,85.21,32.15,34.33,105.45,29.92,147.99-2.7,118.64-90.93,51.12-218.85,51.12-218.85,0,0,.3,30.39-16.14,78.04-5.95,17.23-26.62,59.3-103.15,127.36-5.03,4.47-28.63,6.9-39.47-4.48-1.43-1.51-10.57-20.76.68-36.09,39.5-53.78,42.96-51.31,79.15-95.21,15.38-18.64,41.44-52.62,50.23-100.11,1.42-7.66,6.04-35.75-2.7-69.06-5.53-21.11-21.53-43.05-21.53-43.05,0,0,2.89,27.35-3.58,59.2-7.51,36.87-64.58,93.28-64.58,93.28l-37.67-60.99s31.25-31.45,52.02-76.24c13.66-29.45,13.54-54.15,13.46-59.2C290.87,38.09,256.65.01,256.65.01h0Z"/></svg>